# xmcd CD database file
#
# Track frame offsets:
#	150
#	12118
#	25272
#	41755
#	59675
#	76258
#	94310
#	111553
#	127367
#	141488
#
# Disc length: 2131 seconds
#
# Revision: 0
# Processed by: cddbd v1.5.1PL0 Copyright (c) Steve Scherf et al.
# Submitted via: CDex 1.50
#
DISCID=9508510a
DTITLE=Gordon Ellis - Memory Machine
DYEAR=1900
DGENRE=Country
TTITLE0=Memory Machine
TTITLE1=Mama Gotta Hit It
TTITLE2=Oh Heart
TTITLE3=Eyes Of The Man In The Moon
TTITLE4=One Woman
TTITLE5=Storm Chaser
TTITLE6=Perfect Contradiction
TTITLE7=Tonight There's A Lovers' Moon
TTITLE8=I'm Still Here
TTITLE9=God Bless The Hearts
EXTD=
EXTT0=
EXTT1=
EXTT2=
EXTT3=
EXTT4=
EXTT5=
EXTT6=
EXTT7=
EXTT8=
EXTT9=
PLAYORDER=
